<svg width="53" height="28" viewBox="0 0 53 28" fill="none" xmlns="http://www.w3.org/2000/svg">
<g clip-path="url(#clip0_1725_194)">
<rect width="53" height="28" rx="6" fill="#FF2D55"/>
<path d="M17.8594 18H12.3047V17.6836H13.2422V11.2852H12.3047V10.9688H15.6797V11.2852H14.6836V17.6836H16.0195C16.2383 17.6836 16.4297 17.6445 16.5938 17.5664C16.9062 17.418 17.1445 17.0703 17.3086 16.5234L17.6016 15.5156H17.9062L17.8594 18ZM21.6825 18H18.3661V17.6836H19.3036V11.2852H18.3661V10.9688H21.6825V11.2852H20.745V17.6836H21.3661C21.5302 17.6992 21.6356 17.8047 21.6825 18ZM25.9744 18.0586H25.7634C25.5916 18.0586 25.4627 18.0273 25.3767 17.9648C25.2673 17.8867 25.1189 17.6094 24.9314 17.1328L22.6462 11.2852H22.0134V10.9688H25.0134V11.2852H24.0877L26.115 16.4297L27.9548 11.2852H27.0173V10.9688H28.9978V11.2852H28.4119L25.9744 18.0586ZM35.1881 13.1719H34.8834L34.6608 12.4453C34.6373 12.3672 34.61 12.293 34.5788 12.2227C34.3288 11.5977 33.903 11.2852 33.3014 11.2852H31.8014V14.2031H34.11V14.5547H31.8014V17.6836H33.3014C33.4577 17.6836 33.6022 17.6641 33.735 17.625C34.1413 17.5 34.4459 17.1328 34.6491 16.5234L34.8834 15.7969H35.1881L35.1413 18H29.4225V17.6836H30.36V11.2852H29.4225V10.9688H35.1413L35.1881 13.1719Z" fill="white"/>
</g>
<defs>
<clipPath id="clip0_1725_194">
<rect width="53" height="28" fill="white"/>
</clipPath>
</defs>
</svg>
