<svg width="187" height="40" viewBox="0 0 187 40" fill="none" xmlns="http://www.w3.org/2000/svg">
<g clip-path="url(#clip0_1725_200)">
<g filter="url(#filter0_b_1725_200)">
<rect width="187" height="40" rx="10" fill="black" fill-opacity="0.05"/>
</g>
<path fill-rule="evenodd" clip-rule="evenodd" d="M17.5 20.538C17.5043 16.929 20.429 14.0043 24.038 14C27.6471 14.0043 30.5717 16.929 30.576 20.538C30.576 24.6844 24.748 30.5595 24.5009 30.8079C24.3782 30.9309 24.2117 31 24.038 31C23.8643 31 23.6978 30.9309 23.5751 30.8079C23.328 30.5595 17.5 24.6844 17.5 20.538ZM24.038 18.2497C22.7742 18.2497 21.7497 19.2742 21.7497 20.538C21.7511 21.8012 22.7748 22.8249 24.038 22.8263C25.3018 22.8263 26.3263 21.8018 26.3263 20.538C26.3263 19.2742 25.3018 18.2497 24.038 18.2497Z" fill="white"/>
<path d="M48.3984 24.5195C47.6719 24.9102 46.9062 25.1094 46.1016 25.1172C44.9844 25.1172 44.082 24.7539 43.3945 24.0273C42.7461 23.3398 42.4219 22.4883 42.4219 21.4727C42.4219 20.6289 42.6641 19.8789 43.1484 19.2227C43.8281 18.3086 44.8125 17.8516 46.1016 17.8516C46.9531 17.8516 47.7031 18.0508 48.3516 18.4492C48.3516 18.3008 48.3594 18.1875 48.375 18.1094C48.4141 17.9766 48.5312 17.9102 48.7266 17.9102L48.7617 20.1719H48.3867C48.3164 19.9219 48.2383 19.6953 48.1523 19.4922C47.7617 18.625 47.125 18.1914 46.2422 18.1914C45.9688 18.1914 45.7148 18.2344 45.4805 18.3203C44.5273 18.6953 44.0508 19.7383 44.0508 21.4492C44.0586 23.6523 44.7656 24.7617 46.1719 24.7773C46.3047 24.7773 46.4375 24.7695 46.5703 24.7539C47.4922 24.6211 48.1172 23.9648 48.4453 22.7852H48.7969V25.0586C48.7109 25.0586 48.6406 25.0508 48.5859 25.0352C48.4531 24.9961 48.3906 24.8242 48.3984 24.5195ZM49.3622 18.2852V17.9688H52.6669V18.2852H51.7294V22.3164C51.7294 22.7227 51.7606 23.0781 51.8231 23.3828C52.0184 24.3125 52.5575 24.7773 53.4403 24.7773C54.7059 24.7695 55.3427 23.9531 55.3505 22.3281V18.2852H54.413V17.9688H56.7098V18.2852H55.7723V22.2578C55.7723 22.7891 55.7137 23.2461 55.5966 23.6289C55.2762 24.6211 54.4755 25.1172 53.1942 25.1172C51.2802 25.1094 50.3153 24.2031 50.2997 22.3984V18.2852H49.3622ZM60.5095 25H57.1931V24.6836H58.1306V18.2852H57.1931V17.9688H60.9666C61.5837 17.9688 62.1072 18.1133 62.5369 18.4023C63.0525 18.7539 63.3103 19.2227 63.3103 19.8086C63.3103 20.0039 63.2791 20.1992 63.2166 20.3945C62.9978 21.0273 62.49 21.4492 61.6931 21.6602L63.533 24.6953H63.7791C63.8259 24.6953 63.8728 24.6992 63.9197 24.707C64.0212 24.7305 64.072 24.8281 64.072 25L62.1033 25.0117L60.322 21.7891H59.572V24.6836H60.5095V25ZM60.3806 18.2852H59.572V21.4375H60.4509C60.7244 21.4375 60.9666 21.3633 61.1775 21.2148C61.5759 20.9258 61.7752 20.4688 61.7752 19.8438C61.7752 19.6016 61.7361 19.375 61.658 19.1641C61.4392 18.5781 61.0134 18.2852 60.3806 18.2852ZM67.8131 25H64.4967V24.6836H65.4342V18.2852H64.4967V17.9688H68.2702C68.8873 17.9688 69.4108 18.1133 69.8405 18.4023C70.3561 18.7539 70.6139 19.2227 70.6139 19.8086C70.6139 20.0039 70.5827 20.1992 70.5202 20.3945C70.3014 21.0273 69.7936 21.4492 68.9967 21.6602L70.8366 24.6953H71.0827C71.1295 24.6953 71.1764 24.6992 71.2233 24.707C71.3248 24.7305 71.3756 24.8281 71.3756 25L69.4069 25.0117L67.6256 21.7891H66.8756V24.6836H67.8131V25ZM67.6842 18.2852H66.8756V21.4375H67.7545C68.028 21.4375 68.2702 21.3633 68.4811 21.2148C68.8795 20.9258 69.0788 20.4688 69.0788 19.8438C69.0788 19.6016 69.0397 19.375 68.9616 19.1641C68.7428 18.5781 68.317 18.2852 67.6842 18.2852ZM77.5659 20.1719H77.2612L77.0386 19.4453C77.0152 19.3672 76.9878 19.293 76.9566 19.2227C76.7066 18.5977 76.2808 18.2852 75.6792 18.2852H74.1792V21.2031H76.4878V21.5547H74.1792V24.6836H75.6792C75.8355 24.6836 75.98 24.6641 76.1128 24.625C76.5191 24.5 76.8237 24.1328 77.0269 23.5234L77.2612 22.7969H77.5659L77.5191 25H71.8003V24.6836H72.7378V18.2852H71.8003V17.9688H77.5191L77.5659 20.1719ZM83.5805 18.2852V17.9688H85.9594V18.2852H85.0219V24.9414L84.4008 25.0586L79.8539 19.6328V24.6836H80.5336C80.6977 24.6992 80.8031 24.8047 80.85 25H78.4359V24.6836H79.3734V18.2852H78.4359V17.9688H80.2992L84.5414 23.043V18.2852H83.5805ZM91.2708 25H87.6145V24.6836H88.7278V18.2852H88.388C88.2317 18.2852 88.0911 18.3047 87.9661 18.3438C87.552 18.4688 87.2513 18.8359 87.0638 19.4453L86.7591 20.418H86.4075L86.4661 17.9688H92.4427L92.4895 20.418H92.1497L91.845 19.4453C91.8138 19.3438 91.7786 19.2461 91.7395 19.1523C91.4973 18.5742 91.0911 18.2852 90.5208 18.2852H90.1692V24.6836H90.9661C91.1067 24.6992 91.2083 24.8047 91.2708 25ZM101.132 25H95.5772V24.6836H96.5147V18.2852H95.5772V17.9688H98.9522V18.2852H97.9561V24.6836H99.292C99.5108 24.6836 99.7022 24.6445 99.8662 24.5664C100.179 24.418 100.417 24.0703 100.581 23.5234L100.874 22.5156H101.179L101.132 25ZM105.494 17.8516C106.353 17.8516 107.103 18.0898 107.744 18.5664C108.65 19.2383 109.103 20.2148 109.103 21.4961C109.103 22.5742 108.736 23.457 108.002 24.1445C107.307 24.793 106.459 25.1172 105.459 25.1172C104.576 25.1172 103.803 24.8594 103.139 24.3438C102.256 23.6562 101.814 22.6914 101.814 21.4492C101.814 20.3711 102.185 19.4922 102.928 18.8125C103.631 18.1719 104.486 17.8516 105.494 17.8516ZM105.494 24.7773C105.682 24.7773 105.857 24.7578 106.021 24.7188C106.99 24.4609 107.475 23.3711 107.475 21.4492C107.475 20.9414 107.439 20.4922 107.369 20.1016C107.143 18.8281 106.506 18.1914 105.459 18.1914C105.389 18.1914 105.314 18.1953 105.236 18.2031C104.041 18.3125 103.443 19.4102 103.443 21.4961C103.443 22.1836 103.506 22.7656 103.631 23.2422C103.904 24.2656 104.525 24.7773 105.494 24.7773ZM116.102 24.5195C115.376 24.9102 114.61 25.1094 113.805 25.1172C112.688 25.1172 111.786 24.7539 111.098 24.0273C110.45 23.3398 110.126 22.4883 110.126 21.4727C110.126 20.6289 110.368 19.8789 110.852 19.2227C111.532 18.3086 112.516 17.8516 113.805 17.8516C114.657 17.8516 115.407 18.0508 116.055 18.4492C116.055 18.3008 116.063 18.1875 116.079 18.1094C116.118 17.9766 116.235 17.9102 116.43 17.9102L116.466 20.1719H116.091C116.02 19.9219 115.942 19.6953 115.856 19.4922C115.466 18.625 114.829 18.1914 113.946 18.1914C113.673 18.1914 113.419 18.2344 113.184 18.3203C112.231 18.6953 111.755 19.7383 111.755 21.4492C111.762 23.6523 112.47 24.7617 113.876 24.7773C114.009 24.7773 114.141 24.7695 114.274 24.7539C115.196 24.6211 115.821 23.9648 116.149 22.7852H116.501V25.0586C116.415 25.0586 116.345 25.0508 116.29 25.0352C116.157 24.9961 116.095 24.8242 116.102 24.5195ZM124.402 25H121.461V24.6836H122.269L121.39 22.4336H119.023L118.168 24.6836H118.789C118.836 24.6836 118.879 24.6875 118.918 24.6953C119.027 24.7188 119.082 24.8203 119.082 25H116.949V24.6836H117.699L120.277 17.9688H121.004L123.746 24.6836H124.109C124.164 24.6836 124.207 24.6875 124.238 24.6953C124.347 24.7188 124.402 24.8203 124.402 25ZM121.25 22.082L120.195 19.3398L119.152 22.082H121.25ZM129.631 25H125.975V24.6836H127.088V18.2852H126.749C126.592 18.2852 126.452 18.3047 126.327 18.3438C125.913 18.4688 125.612 18.8359 125.424 19.4453L125.12 20.418H124.768L124.827 17.9688H130.803L130.85 20.418H130.51L130.206 19.4453C130.174 19.3438 130.139 19.2461 130.1 19.1523C129.858 18.5742 129.452 18.2852 128.881 18.2852H128.53V24.6836H129.327C129.467 24.6992 129.569 24.8047 129.631 25ZM134.849 25H131.533V24.6836H132.47V18.2852H131.533V17.9688H134.849V18.2852H133.912V24.6836H134.533C134.697 24.6992 134.802 24.8047 134.849 25ZM139.434 17.8516C140.293 17.8516 141.043 18.0898 141.684 18.5664C142.59 19.2383 143.043 20.2148 143.043 21.4961C143.043 22.5742 142.676 23.457 141.942 24.1445C141.246 24.793 140.399 25.1172 139.399 25.1172C138.516 25.1172 137.743 24.8594 137.078 24.3438C136.196 23.6562 135.754 22.6914 135.754 21.4492C135.754 20.3711 136.125 19.4922 136.868 18.8125C137.571 18.1719 138.426 17.8516 139.434 17.8516ZM139.434 24.7773C139.621 24.7773 139.797 24.7578 139.961 24.7188C140.93 24.4609 141.414 23.3711 141.414 21.4492C141.414 20.9414 141.379 20.4922 141.309 20.1016C141.082 18.8281 140.446 18.1914 139.399 18.1914C139.328 18.1914 139.254 18.1953 139.176 18.2031C137.981 18.3125 137.383 19.4102 137.383 21.4961C137.383 22.1836 137.446 22.7656 137.571 23.2422C137.844 24.2656 138.465 24.7773 139.434 24.7773ZM148.988 18.2852V17.9688H151.366V18.2852H150.429V24.9414L149.808 25.0586L145.261 19.6328V24.6836H145.941C146.105 24.6992 146.21 24.8047 146.257 25H143.843V24.6836H144.78V18.2852H143.843V17.9688H145.706L149.948 23.043V18.2852H148.988Z" fill="white"/>
</g>
<defs>
<filter id="filter0_b_1725_200" x="-1.35914" y="-1.35914" width="189.718" height="42.7183" filterUnits="userSpaceOnUse" color-interpolation-filters="sRGB">
<feFlood flood-opacity="0" result="BackgroundImageFix"/>
<feGaussianBlur in="BackgroundImageFix" stdDeviation="0.67957"/>
<feComposite in2="SourceAlpha" operator="in" result="effect1_backgroundBlur_1725_200"/>
<feBlend mode="normal" in="SourceGraphic" in2="effect1_backgroundBlur_1725_200" result="shape"/>
</filter>
<clipPath id="clip0_1725_200">
<rect width="187" height="40" fill="white"/>
</clipPath>
</defs>
</svg>
